<svg xmlns="http://www.w3.org/2000/svg" width="512" height="512" viewBox="0 0 512 512">
  <circle cx="256" cy="256" r="256" fill="#e74c3c"/>
  <path d="M256 48C141.1 48 48 141.1 48 256s93.1 208 208 208 208-93.1 208-208S370.9 48 256 48zm0 384c-97 0-176-79-176-176S159 80 256 80s176 79 176 176-79 176-176 176z" fill="#c0392b"/>
  <path d="M368 192c0-26.5-21.5-48-48-48s-48 21.5-48 48 21.5 48 48 48 48-21.5 48-48zm-208 0c0-26.5-21.5-48-48-48s-48 21.5-48 48 21.5 48 48 48 48-21.5 48-48z" fill="#fff"/>
  <path d="M256 320c-53 0-96-43-96-96 0-17.7 14.3-32 32-32s32 14.3 32 32c0 17.6 14.4 32 32 32s32-14.4 32-32c0-17.7 14.3-32 32-32s32 14.3 32 32c0 53-43 96-96 96z" fill="#fff"/>
  <path d="M256 384c-70.7 0-128-57.3-128-128 0-17.7 14.3-32 32-32s32 14.3 32 32c0 35.3 28.7 64 64 64s64-28.7 64-64c0-17.7 14.3-32 32-32s32 14.3 32 32c0 70.7-57.3 128-128 128z" fill="#c0392b"/>
</svg>
